<svg width="197" height="58" viewBox="0 0 197 58" fill="none" xmlns="http://www.w3.org/2000/svg">
<mask id="mask0_5605_55489" style="mask-type:alpha" maskUnits="userSpaceOnUse" x="0" y="49" width="198" height="9">
<path d="M99.6465 57.6459C99.4986 57.6887 99.3506 57.7637 99.2027 57.7637C98.4102 57.7744 97.6176 57.7851 96.8251 57.7529C96.6138 57.7422 96.3496 57.603 96.2017 57.4424C95.2506 56.4143 94.3313 55.3648 93.4014 54.3154C93.1584 54.0369 92.9153 53.9298 92.5349 54.1012C92.5349 54.9472 92.5032 55.8039 92.5455 56.6499C92.5772 57.1104 92.9576 57.271 93.3803 57.3246C93.5705 57.346 93.7607 57.3995 93.9509 57.4317C93.9509 57.4852 93.9615 57.5388 93.9615 57.603C93.8241 57.6566 93.6867 57.7637 93.5494 57.7637C92.2285 57.7744 90.9076 57.7744 89.5867 57.7637C89.4494 57.7637 89.312 57.6994 89.1746 57.6566C89.1746 57.603 89.1641 57.5495 89.1641 57.4959C89.3226 57.4424 89.4811 57.3567 89.6501 57.3353C90.4321 57.2389 90.58 57.0783 90.58 56.2858C90.5906 54.4974 90.5906 52.7197 90.5906 50.9313C90.5906 50.0532 90.4955 49.9568 89.6079 49.8069C89.4811 49.7854 89.3648 49.7212 89.238 49.6891C89.238 49.6462 89.2275 49.5927 89.2275 49.5498C89.3331 49.4963 89.4494 49.4106 89.555 49.4106C91.5522 49.4749 93.5705 49.2072 95.5571 49.6141C96.3602 49.7747 96.9942 50.2245 97.3218 50.9956C97.7022 51.8951 97.1844 53.0196 96.2439 53.4158C95.9269 53.555 95.5993 53.6728 95.1767 53.8335C95.8741 54.6152 96.5504 55.322 97.1738 56.0716C97.8184 56.8641 98.706 57.2175 99.6782 57.4424C99.6782 57.5174 99.6571 57.5816 99.6465 57.6459ZM92.5349 53.4158C93.4965 53.5015 94.3207 53.3087 94.9231 52.6126C95.1661 52.3235 95.3246 51.8202 95.2718 51.4453C95.0921 50.1281 93.3803 49.6034 92.5349 50.2459C92.5349 51.2526 92.5349 52.2914 92.5349 53.4158Z" fill="black"/>
<path d="M78.4922 57.5285C78.6718 57.4535 78.8198 57.3678 78.9783 57.3464C79.7919 57.2393 79.9082 57.1215 79.9187 56.3077C79.9187 54.4871 79.9187 52.6666 79.9187 50.8461C79.9187 50.0322 79.7919 49.9037 78.9888 49.7966C78.8409 49.7752 78.7035 49.6895 78.5662 49.6359C78.5767 49.5824 78.5767 49.5288 78.5873 49.4753C78.7669 49.4432 78.936 49.4003 79.1156 49.3896C80.7218 49.3789 82.3174 49.3254 83.913 49.4111C85.3501 49.486 86.7873 49.6788 87.9179 50.7711C89.2811 52.0883 89.3762 54.7227 88.0976 56.1149C87.3579 56.9181 86.4385 57.3464 85.3924 57.5499C83.2262 57.9783 81.0494 57.657 78.8726 57.7427C78.7881 57.7427 78.7035 57.7105 78.619 57.6891C78.5979 57.6784 78.5873 57.6356 78.4922 57.5285ZM81.8525 56.9395C83.3424 57.582 85.3396 56.9502 86.28 55.5901C87.1254 54.3693 87.0092 52.3239 86.0581 51.2423C85.1282 50.1714 82.8669 49.5396 81.8525 50.2785C81.8525 52.4738 81.8525 54.7013 81.8525 56.9395Z" fill="black"/>
<path d="M37.2704 53.812C37.3444 53.9405 37.3761 54.0691 37.4501 54.144C38.158 54.9151 38.866 55.6861 39.574 56.4464C40.0073 56.9176 40.525 57.2175 41.1696 57.3139C41.3281 57.3353 41.4655 57.4531 41.6134 57.5281C41.6029 57.5816 41.5923 57.6352 41.5712 57.6887C41.4232 57.7101 41.2859 57.7422 41.1379 57.753C40.525 57.7637 39.9016 57.7208 39.2887 57.7637C38.7709 57.7958 38.4011 57.6244 38.0629 57.2175C37.2493 56.2537 36.3934 55.3327 35.5586 54.3903C35.3261 54.1226 35.0831 53.8977 34.6287 54.0905C34.6075 54.219 34.5758 54.3903 34.5758 54.5617C34.5653 55.1721 34.5653 55.7718 34.5758 56.3822C34.597 57.0783 34.7766 57.2603 35.4423 57.346C35.6114 57.3674 35.7699 57.4317 35.9284 57.5816C35.4423 57.86 34.9245 57.7422 34.4173 57.7637C33.8679 57.7851 33.3289 57.7851 32.7795 57.7637C32.2828 57.7422 31.765 57.8708 31.2895 57.6566C31.2895 57.5923 31.2895 57.5281 31.2895 57.4638C31.4797 57.421 31.6699 57.3781 31.8601 57.346C32.4519 57.2603 32.6738 57.0354 32.6738 56.4357C32.6844 54.5402 32.6844 52.6555 32.6738 50.76C32.6738 50.1067 32.4413 49.8925 31.7862 49.8176C31.6065 49.7962 31.4269 49.7319 31.2578 49.6891C31.2578 49.6248 31.2684 49.5606 31.2684 49.4963C31.4269 49.4642 31.5748 49.4106 31.7333 49.4106C33.2444 49.3999 34.766 49.3571 36.2771 49.4213C36.9428 49.4535 37.6297 49.6248 38.2743 49.8604C39.0668 50.1603 39.5212 50.8456 39.5106 51.6917C39.5 52.5484 38.9611 53.1267 38.1897 53.4586C37.8939 53.5764 37.598 53.6835 37.2704 53.812ZM34.6181 53.3944C35.7276 53.5657 36.8583 53.0731 37.207 52.3235C37.4923 51.7024 37.3338 50.9099 36.8055 50.4815C36.2032 49.9889 35.2838 49.7212 34.6075 50.2674C34.6181 51.2847 34.6181 52.3235 34.6181 53.3944Z" fill="black"/>
<path d="M154.691 57.9588C153.158 57.9588 151.785 57.5947 150.665 56.4489C148.932 54.6819 149.164 51.5334 151.489 50.0449C153.349 48.8669 156.72 48.9311 158.484 50.4304C160.196 51.8868 160.333 55.1317 158.537 56.6202C157.449 57.5091 156.35 57.9588 154.691 57.9588ZM157.575 53.6645C157.618 53.6538 157.649 53.6538 157.692 53.6431C157.544 52.9684 157.47 52.2723 157.237 51.6298C156.815 50.5161 155.948 49.8842 154.775 49.8521C153.655 49.82 152.778 50.3554 152.271 51.3942C151.669 52.6257 151.637 53.9108 152.06 55.1852C152.45 56.3418 153.18 57.1985 154.469 57.2842C155.631 57.3698 156.529 56.8772 157.153 55.8384C157.544 55.1531 157.597 54.4249 157.575 53.6645Z" fill="black"/>
<path d="M134.792 57.9563C133.281 57.967 131.897 57.6029 130.809 56.4678C129.012 54.5937 129.276 51.4131 131.781 49.946C133.556 48.9072 136.811 48.8001 138.713 50.5243C140.34 51.9914 140.393 54.9149 138.903 56.3714C137.751 57.4851 136.599 57.9563 134.792 57.9563ZM137.709 53.7048C137.751 53.6941 137.783 53.6941 137.825 53.6834C137.677 52.998 137.614 52.2698 137.371 51.6166C136.959 50.4921 136.071 49.8817 134.898 49.8496C133.82 49.8282 132.954 50.2994 132.457 51.3167C132.277 51.6915 132.129 52.1092 132.045 52.5161C131.77 53.844 131.929 55.1291 132.742 56.2322C133.884 57.785 136.198 57.6029 137.212 55.9644C137.635 55.2469 137.73 54.4973 137.709 53.7048Z" fill="black"/>
<path d="M104.116 49.2626C105.49 49.1662 106.716 49.6267 107.794 50.5691C108.988 51.6185 109.273 52.9786 108.988 54.4457C108.618 56.3412 107.286 57.3264 105.543 57.7762C103.947 58.1832 102.373 58.0547 100.893 57.2408C98.1882 55.7415 98.315 52.0255 100.133 50.5691C101.305 49.616 102.584 49.1876 104.116 49.2626ZM106.927 53.664C106.811 53.0536 106.737 52.4431 106.578 51.8434C106.272 50.7083 105.258 49.9265 104.053 49.8301C102.954 49.7445 101.876 50.4191 101.411 51.5007C100.893 52.6787 100.936 53.9103 101.242 55.1097C101.422 55.7951 101.823 56.4162 102.426 56.8338C103.63 57.6691 105.437 57.2943 106.251 56.0628C106.716 55.3346 106.885 54.5314 106.927 53.664Z" fill="black"/>
<path d="M118.911 49.3344C118.974 50.1697 119.038 51.0371 119.101 51.8831C118.467 52.0759 118.393 52.033 118.129 51.5404C117.474 50.2875 116.301 49.7199 115.022 49.8591C113.437 50.0197 112.338 51.0585 112.032 52.3757C111.672 53.9392 112.021 55.2779 113.152 56.3702C114.156 57.334 115.804 57.6231 117.178 56.8307C117.178 55.9632 117.21 55.0637 117.167 54.1641C117.146 53.7251 116.724 53.6715 116.385 53.5644C116.216 53.5109 116.047 53.4359 115.783 53.3395C116.375 53.0076 119.989 53.0504 120.369 53.3824C120.147 53.468 119.968 53.543 119.777 53.5966C119.386 53.7036 119.196 53.9392 119.207 54.3676C119.228 55.1172 119.175 55.8669 119.217 56.6165C119.238 57.077 119.048 57.334 118.647 57.4304C117.949 57.6017 117.262 57.8373 116.554 57.9123C115.149 58.0515 113.744 58.0301 112.402 57.4946C110.33 56.6593 109.2 54.8816 109.813 52.6006C110.204 51.1335 111.25 50.159 112.634 49.6342C114.209 49.0345 115.825 49.0452 117.442 49.5378C117.611 49.5914 117.865 49.5378 118.002 49.4415C118.361 49.1737 118.372 49.1416 118.911 49.3344Z" fill="black"/>
<path d="M171.153 53.32C170.973 53.4164 170.846 53.5128 170.709 53.5556C170.085 53.7377 169.969 53.8662 169.959 54.5194C169.948 55.2477 169.938 55.9866 169.959 56.7148C169.969 57.0789 169.842 57.3145 169.504 57.3895C168.659 57.5929 167.803 57.8821 166.947 57.9249C165.975 57.9785 164.961 57.9356 164.009 57.7321C162.276 57.3573 160.924 56.3828 160.48 54.5409C160.142 53.1166 160.628 51.8529 161.611 50.8248C162.636 49.7432 163.925 49.2399 165.394 49.2078C166.376 49.1864 167.359 49.1864 168.3 49.5505C168.426 49.5933 168.617 49.4862 168.765 49.4327C169.018 49.347 169.272 49.2506 169.621 49.1328C169.726 50.1609 169.821 51.0283 169.916 51.8957C169.409 52.0778 169.113 52.0242 168.891 51.5638C167.771 49.2827 164.517 49.2934 163.228 51.3817C162.002 53.3629 162.741 56.2864 165.225 57.1324C166.112 57.4323 167.021 57.3573 167.93 56.854C167.93 55.933 167.951 55.0121 167.909 54.0911C167.898 53.9412 167.676 53.7591 167.507 53.6734C167.275 53.5556 167.01 53.5235 166.662 53.4164C166.778 53.2879 166.863 53.1166 166.947 53.1166C168.3 53.1166 169.652 53.1487 171.005 53.1594C171.005 53.1808 171.015 53.2022 171.153 53.32Z" fill="black"/>
<path d="M73.2919 53.331C73.2602 53.3738 73.2285 53.4381 73.1968 53.4381C72.4677 53.5024 72.2247 53.9628 72.2352 54.6375C72.2352 55.1944 72.2035 55.7405 72.2352 56.2974C72.2775 57.0792 72.2141 57.2184 71.485 57.4647C70.0584 57.9573 68.5896 57.9466 67.1103 57.8181C66.2226 57.7431 65.3878 57.4647 64.6376 56.9828C62.2495 55.4835 62.2178 52.3672 64.2149 50.6109C65.2399 49.7114 66.4234 49.2509 67.7865 49.2616C68.6847 49.2723 69.5829 49.2188 70.4494 49.5507C70.703 49.6471 70.9778 49.6685 71.2208 49.4008C71.3476 49.2723 71.6224 49.283 71.9182 49.2188C72.0133 50.1719 72.0873 51.0286 72.1718 51.8639C71.6963 52.0781 71.4533 51.9174 71.2842 51.564C70.6291 50.204 69.4773 49.7007 68.0719 49.8185C66.603 49.9363 65.6203 50.7501 65.1237 52.1851C64.4685 54.0699 65.4724 56.4259 67.3533 57.1006C68.2092 57.4111 69.0757 57.3897 69.9316 57.0685C70.2275 56.9614 70.3332 56.7686 70.3332 56.458C70.3226 55.7941 70.3332 55.1408 70.3226 54.4769C70.3121 53.845 70.1324 53.6309 69.5195 53.4809C69.3822 53.4488 69.2342 53.4167 69.044 53.3738C69.4139 53.0526 72.9221 53.0419 73.2919 53.331Z" fill="black"/>
<path d="M128.495 49.4238C128.495 50.0449 128.495 50.6553 128.495 51.2978C128.273 51.2978 128.019 51.2978 127.787 51.2978C127.47 50.2269 127.089 49.9699 125.906 49.9699C125.219 49.9699 124.543 49.9699 123.75 49.9699C123.634 51.0087 123.719 52.0046 123.697 53.097C124.606 53.0541 125.483 53.3004 126.286 52.9149C126.593 52.765 126.772 52.3687 127.005 52.0796C126.984 52.0475 126.952 52.0046 126.931 51.9725C127.153 51.9725 127.364 51.9725 127.639 51.9725C127.639 52.9256 127.639 53.8573 127.639 54.8318C127.385 54.8318 127.163 54.8318 126.91 54.8318C126.762 53.8037 126.022 53.6752 125.187 53.6967C124.733 53.7074 124.279 53.6967 123.697 53.6967C123.697 54.3713 123.708 55.0139 123.697 55.6457C123.666 57.3806 123.793 57.1771 125.187 57.1664C125.674 57.1664 126.16 57.1021 126.646 57.0593C127.385 56.995 127.819 56.481 128.21 55.9134C128.548 55.4208 128.622 55.4101 129.33 55.56C129.235 55.8599 129.161 56.149 129.055 56.4275C128.558 57.7554 128.558 57.7554 127.163 57.7554C125.103 57.7554 123.042 57.7554 120.982 57.7554C120.781 57.7554 120.57 57.734 120.369 57.7232C120.348 57.6804 120.316 57.6376 120.295 57.5947C120.39 57.4984 120.475 57.3591 120.591 57.3163C120.749 57.2521 120.929 57.2521 121.109 57.2306C121.51 57.1771 121.669 56.9308 121.669 56.5345C121.669 54.5748 121.679 52.615 121.669 50.6446C121.669 50.0235 121.489 49.8843 120.813 49.82C120.591 49.7986 120.284 49.8628 120.358 49.4023C123.042 49.4238 125.726 49.4238 128.495 49.4238Z" fill="black"/>
<path d="M197.01 57.5832C196.894 57.6475 196.767 57.7546 196.651 57.7546C195.372 57.7653 194.083 57.7653 192.804 57.7546C192.699 57.7546 192.604 57.6689 192.498 57.626C192.487 57.5725 192.477 57.519 192.477 57.4654C192.667 57.3904 192.847 57.3048 193.037 57.2512C193.523 57.1013 193.565 57.0156 193.364 56.5337C192.741 55.0773 192.741 55.0773 191.209 55.0773C190.712 55.0773 190.226 55.088 189.729 55.0773C189.455 55.0773 189.275 55.1523 189.148 55.4307C188.979 55.8162 188.736 56.1696 188.577 56.5659C188.43 56.9193 188.535 57.1763 188.968 57.2512C189.18 57.2941 189.55 57.2298 189.497 57.776C188.282 57.7438 187.077 57.8616 185.872 57.6903C185.862 57.626 185.851 57.5618 185.83 57.5082C185.946 57.4333 186.063 57.3048 186.189 57.2834C186.771 57.1977 187.045 56.7693 187.288 56.3088C188.472 54.0921 189.666 51.8646 190.828 49.6371C190.997 49.3159 191.209 49.2088 191.536 49.2195C191.864 49.2302 191.959 49.4551 192.086 49.7014C192.868 51.2542 193.66 52.7963 194.453 54.3491C194.78 54.9916 195.129 55.6342 195.446 56.2874C195.71 56.8336 196.08 57.2191 196.693 57.3155C196.788 57.3262 196.873 57.4012 196.968 57.444C196.978 57.4868 196.999 57.5404 197.01 57.5832ZM192.318 54.4241C191.874 53.5887 191.483 52.8391 191.092 52.0895C191.04 52.1002 190.987 52.1109 190.934 52.1323C190.532 52.8712 190.141 53.6102 189.698 54.4241C190.596 54.4241 191.409 54.4241 192.318 54.4241Z" fill="black"/>
<path d="M58.9212 49.6897C59.3545 49.2827 62.4717 49.3149 62.8521 49.6576C62.6302 49.7218 62.4717 49.7754 62.3026 49.8075C61.6686 49.9146 61.4362 50.1609 61.4362 50.7927C61.4256 52.0457 61.4362 53.2879 61.4256 54.5409C61.4256 54.8621 61.3728 55.1727 61.3411 55.494C61.1826 56.7255 60.3583 57.4002 59.2911 57.6786C57.9068 58.032 56.4697 58.032 55.0854 57.5715C53.8491 57.1646 53.3207 56.2329 53.289 54.9692C53.2573 53.652 53.2256 52.3348 53.2256 51.0069C53.2256 49.9895 52.9826 49.7754 52.1901 49.7754C52.0844 49.7754 51.9787 49.6897 51.8836 49.6469C51.8836 49.604 51.873 49.5612 51.873 49.5183C52.021 49.4648 52.1584 49.3791 52.3063 49.3791C53.5955 49.3684 54.8741 49.3684 56.1632 49.3791C56.29 49.3791 56.4168 49.4327 56.5436 49.4648C56.5542 49.5183 56.5542 49.5719 56.5648 49.6254C56.4063 49.679 56.2583 49.7646 56.0998 49.7861C55.3707 49.8824 55.1488 50.1073 55.1382 50.857C55.1277 52.142 55.1171 53.4271 55.1488 54.7122C55.1699 55.4618 55.2862 56.2222 55.8674 56.7791C56.9029 57.775 59.7666 57.368 60.1893 55.7724C60.2421 55.5475 60.3055 55.3226 60.3055 55.0977C60.3161 53.6306 60.3266 52.1742 60.3266 50.707C60.3266 50.0538 60.1259 49.861 59.4918 49.7861C59.2594 49.7861 59.0903 49.7325 58.9212 49.6897Z" fill="black"/>
<path d="M11.0425 57.7014C9.61594 57.7978 8.17883 57.7871 6.75229 57.7014C6.74172 57.6372 6.73116 57.5622 6.72059 57.498C6.90023 57.423 7.0693 57.3373 7.24894 57.2838C7.61878 57.1767 7.70332 56.9304 7.58708 56.5877C7.57652 56.5556 7.55538 56.5234 7.54482 56.4913C6.93193 55.0456 6.93193 55.0456 5.38915 55.0456C4.94534 55.0456 4.51209 55.067 4.06828 55.0349C3.63504 55.0028 3.32859 55.1313 3.14896 55.5596C2.95875 56.0094 2.70514 56.4485 2.4304 56.9946C2.87422 57.166 3.24406 57.3052 3.74071 57.498C3.53993 57.6158 3.43426 57.7228 3.32859 57.7228C2.3036 57.7336 1.28917 57.7228 0.264174 57.7228C0.200772 57.7228 0.147938 57.6693 0 57.5836C0.137371 57.4658 0.221906 57.3373 0.317009 57.3159C0.919326 57.2088 1.23634 56.7697 1.50051 56.2664C2.67344 54.0389 3.84638 51.8115 5.04044 49.5947C5.12498 49.4341 5.37859 49.2841 5.55822 49.2734C5.73786 49.2734 6.0126 49.4127 6.09714 49.5733C7.07987 51.4795 8.04146 53.3964 9.01362 55.3133C9.23553 55.7524 9.44687 56.2129 9.75331 56.5984C9.98578 56.8875 10.3451 57.0589 10.6621 57.2624C10.7783 57.3373 10.9262 57.3802 11.0636 57.4337C11.0636 57.5408 11.053 57.6158 11.0425 57.7014ZM3.73014 54.4459C4.71287 54.4459 5.56879 54.4459 6.53039 54.4459C6.06544 53.5677 5.64276 52.786 5.16725 51.8757C4.66003 52.7967 4.22679 53.5677 3.73014 54.4459Z" fill="black"/>
<path d="M44.1599 56.9807C44.6037 57.1628 44.9841 57.3234 45.3645 57.484C45.0686 57.816 42.3424 57.8696 41.8457 57.5483C41.9408 57.4626 42.0148 57.3448 42.1099 57.3234C42.7016 57.2163 42.9975 56.7665 43.2511 56.2953C44.424 54.1 45.5758 51.9046 46.7276 49.6986C46.8756 49.4202 47.0235 49.2381 47.3722 49.2595C47.6998 49.2809 47.7949 49.4951 47.9217 49.7521C48.7037 51.3049 49.5068 52.847 50.3098 54.3891C50.6163 54.9888 50.9333 55.5778 51.2292 56.1883C51.5145 56.7772 51.8949 57.2377 52.5712 57.3448C52.6451 57.3555 52.7191 57.4305 52.8882 57.5376C52.7085 57.634 52.6029 57.7303 52.4972 57.7303C51.2503 57.7411 49.9928 57.7411 48.7459 57.7303C48.6508 57.7303 48.5663 57.6554 48.4395 57.484C48.6297 57.4091 48.8093 57.302 48.9995 57.2484C49.3377 57.1628 49.4434 56.9379 49.3271 56.6487C49.1263 56.1561 48.8939 55.6742 48.6403 55.2137C48.5769 55.0959 48.3338 55.0424 48.1753 55.0424C47.2983 55.0317 46.4106 55.021 45.5336 55.0531C45.3434 55.0638 45.1003 55.203 45.0052 55.3637C44.7199 55.8563 44.4874 56.3703 44.1599 56.9807ZM48.2704 54.4641C47.8055 53.5753 47.4039 52.7828 47.0024 52.001C46.9496 52.001 46.8967 52.001 46.8333 52.001C46.4001 52.7935 45.9774 53.5753 45.4913 54.4641C46.474 54.4641 47.2983 54.4641 48.2704 54.4641Z" fill="black"/>
<path d="M176.33 49.3803C177.884 49.391 179.448 49.3268 181.001 49.4125C181.011 49.4981 181.033 49.5731 181.043 49.6588C180.874 49.723 180.716 49.798 180.536 49.8301C179.891 49.9693 179.786 50.2049 180.187 50.7297C180.8 51.5328 181.424 52.3146 182.1 53.1713C182.575 52.5823 183.009 52.0576 183.442 51.5221C183.632 51.2865 183.801 51.0402 183.97 50.7939C184.298 50.3013 184.203 50.0336 183.643 49.8301C183.505 49.7766 183.389 49.6695 183.262 49.5838C183.283 49.5303 183.315 49.4767 183.336 49.4232C184.604 49.4232 185.872 49.4232 187.161 49.4232C187.257 49.6588 187.193 49.7873 186.94 49.8301C186.115 49.9907 185.598 50.5476 185.111 51.1794C184.393 52.1218 183.643 53.0535 182.935 53.9959C182.787 54.1887 182.692 54.4671 182.67 54.7134C182.628 55.2489 182.649 55.7843 182.66 56.3198C182.681 56.973 182.914 57.2086 183.548 57.2943C183.738 57.3264 183.928 57.3693 184.129 57.4014C184.139 57.4549 184.15 57.5085 184.15 57.5513C184.034 57.6156 183.917 57.7441 183.791 57.7441C182.385 57.7548 180.98 57.7441 179.564 57.7334C179.5 57.7334 179.437 57.6905 179.374 57.6584C179.3 57.3157 179.522 57.3157 179.733 57.2943C180.536 57.1979 180.705 57.0373 180.758 56.2341C180.79 55.7201 180.779 55.1953 180.758 54.6813C180.747 54.5314 180.673 54.3707 180.589 54.2529C179.669 53.0857 178.74 51.9184 177.82 50.7618C177.482 50.3334 177.081 50.0122 176.563 49.8408C176.436 49.798 176.341 49.6373 176.225 49.541C176.267 49.4981 176.299 49.4339 176.33 49.3803Z" fill="black"/>
<path d="M25.6251 53.2547C26.1535 52.6015 26.6184 52.0446 27.0622 51.4877C27.2524 51.2521 27.4215 51.0058 27.58 50.7488C27.897 50.2562 27.8125 50.0206 27.263 49.8385C27.1468 49.7957 27.0305 49.7636 26.9249 49.71C26.9037 49.6993 26.8932 49.6458 26.8509 49.5387C26.9883 49.4959 27.1151 49.4209 27.2419 49.4102C28.5205 49.2817 30.3697 49.3888 30.729 49.6351C30.5599 49.7207 30.4437 49.8064 30.3169 49.8385C29.7251 49.9885 29.2707 50.3204 28.9009 50.8024C28.0767 51.8625 27.2419 52.9227 26.4177 53.9936C26.3014 54.1543 26.238 54.3792 26.2275 54.5826C26.2063 55.2038 26.2063 55.8356 26.2169 56.4567C26.2275 57.0885 26.3965 57.2492 27.0305 57.3456C27.2102 57.3777 27.3898 57.4312 27.654 57.4955C27.189 57.8596 23.2793 57.8489 22.8566 57.4955C23.0785 57.4312 23.2476 57.367 23.4166 57.3563C24.1035 57.2813 24.3043 57.0778 24.3254 56.371C24.3254 56.3496 24.3254 56.3389 24.3254 56.3175C24.3677 54.5291 24.3782 54.5291 23.2687 53.0941C22.6664 52.3123 22.0324 51.5413 21.4195 50.7595C21.0813 50.3312 20.6904 49.9885 20.1514 49.8493C20.0352 49.8171 19.9295 49.7207 19.8027 49.6458C20.2148 49.3138 24.1246 49.3245 24.5684 49.6886C24.3043 49.7636 24.1035 49.8064 23.9027 49.86C23.3849 49.9885 23.2687 50.2348 23.5857 50.6631C24.2197 51.4877 24.8854 52.3123 25.6251 53.2547Z" fill="black"/>
<path d="M149.142 55.4715C148.825 56.2425 148.529 56.9707 148.222 57.7311C145.475 57.7311 142.77 57.7311 140.044 57.7311C139.927 57.3884 140.107 57.3348 140.35 57.3134C141.333 57.1956 141.396 57.1099 141.396 56.1033C141.396 54.3684 141.396 52.6443 141.396 50.9094C141.396 50.0955 141.227 49.9028 140.424 49.8278C140.192 49.8064 139.938 49.8278 140.022 49.4102C141.65 49.4102 143.267 49.4102 144.904 49.4102C145 49.6672 144.926 49.7957 144.661 49.8171C143.224 49.9456 143.425 50.1598 143.425 51.3164C143.414 52.9977 143.414 54.6683 143.425 56.3496C143.425 56.9921 143.605 57.1849 144.249 57.1742C144.947 57.1635 145.644 57.0885 146.342 57.0457C147.176 57.0028 147.662 56.4674 148.053 55.7927C148.349 55.2573 148.455 55.2359 149.142 55.4715Z" fill="black"/>
<path d="M15.9348 50.0332C15.9242 50.2152 15.8925 50.3973 15.8925 50.59C15.8925 52.432 15.8925 54.2632 15.8925 56.1052C15.8925 57.0369 16.0193 57.326 16.9809 57.3474C17.0971 57.3474 17.2134 57.4331 17.467 57.5188C17.2556 57.6366 17.1605 57.7222 17.0654 57.7329C16.2412 57.8614 12.976 57.7544 12.5533 57.5402C12.7964 57.4545 12.9443 57.3581 13.0923 57.3474C13.8425 57.251 13.9905 57.1225 13.9905 56.3836C14.001 54.4239 14.001 52.4641 13.9905 50.4937C13.9905 50.3437 13.9588 50.1831 13.9376 50.0439C12.3737 49.7226 11.6235 50.1188 11.2536 51.2754C11.1691 51.2861 11.0634 51.3182 10.9577 51.3182C10.8732 51.3182 10.7887 51.2861 10.5879 51.254C10.6196 50.665 10.6513 50.076 10.683 49.4549C10.9577 49.4335 11.1374 49.3906 11.3276 49.3906C13.7791 49.3906 16.2201 49.3906 18.6716 49.3906C19.2211 49.3906 19.3056 49.4763 19.3373 50.0332C19.3585 50.333 19.3585 50.6436 19.3585 50.9434C19.3585 51.0291 19.3373 51.1148 19.3056 51.2647C19.1049 51.2754 18.9147 51.2861 18.735 51.2968C18.2806 50.0225 17.6044 49.7761 15.9348 50.0332Z" fill="black"/>
<path d="M175.654 57.7429C175.454 57.7536 175.242 57.775 175.042 57.775C173.848 57.775 172.653 57.775 171.459 57.775C171.238 57.775 170.984 57.8071 170.994 57.3787C171.164 57.3573 171.333 57.3252 171.491 57.3145C172.167 57.2395 172.284 57.1324 172.294 56.4578C172.305 55.6546 172.294 54.8514 172.305 54.0482C172.305 52.9773 172.315 51.9064 172.315 50.8355C172.315 50.0966 172.167 49.936 171.449 49.8396C171.259 49.8182 170.994 49.8717 171.016 49.5397C171.354 49.347 174.725 49.272 175.676 49.4434C175.781 49.7111 175.665 49.8075 175.401 49.8396C174.429 49.9788 174.344 50.0645 174.334 51.0497C174.323 52.7417 174.323 54.4338 174.334 56.1258C174.334 57.0361 174.46 57.1753 175.369 57.3252C175.507 57.3466 175.633 57.4644 175.76 57.5394C175.718 57.6036 175.686 57.6786 175.654 57.7429Z" fill="black"/>
<path d="M73.3249 49.6999C73.7053 49.325 77.5305 49.3036 78.08 49.6142C77.837 49.6999 77.689 49.7855 77.5305 49.7962C76.7591 49.8926 76.6323 50.0104 76.6323 50.8136C76.6218 52.6663 76.6218 54.5296 76.6323 56.3823C76.6323 57.0891 76.8014 57.2497 77.4883 57.3354C77.6573 57.3568 77.8158 57.4211 78.0377 57.4853C77.6362 57.828 73.737 57.8494 73.1875 57.5067C73.4622 57.4318 73.6419 57.3675 73.8215 57.3461C74.5084 57.2711 74.7091 57.0998 74.7197 56.4144C74.7408 54.5403 74.7408 52.6663 74.7197 50.7922C74.7091 50.1068 74.4767 49.8926 73.7898 49.8177C73.6313 49.7855 73.4834 49.7427 73.3249 49.6999Z" fill="black"/>
</mask>
<g mask="url(#mask0_5605_55489)">
<rect x="0.00976562" y="48.9375" width="197" height="9.0625" fill="white"/>
</g>
<mask id="mask1_5605_55489" style="mask-type:alpha" maskUnits="userSpaceOnUse" x="28" y="0" width="140" height="39">
<path d="M114.377 14.5647C114.409 14.9288 114.462 15.2072 114.462 15.4857C114.472 18.3557 114.462 21.2364 114.472 24.1064C114.472 26.4945 114.494 28.8933 114.504 31.2815C114.515 33.2733 114.525 35.2759 114.525 37.2678C114.525 37.5248 114.451 37.7711 114.42 38.071C112.94 38.071 111.545 38.071 110.161 38.071C103.102 38.0924 96.0436 38.1352 88.9849 38.1352C87.7908 38.1352 86.5967 37.9425 85.4027 37.7925C84.4199 37.6747 83.4267 37.5355 82.4651 37.3106C81.5035 37.0857 80.5419 36.7645 79.612 36.4218C78.7561 36.1005 77.9107 35.7471 77.1182 35.2973C76.0615 34.7083 75.0153 34.0872 74.0538 33.3483C73.1027 32.6308 72.194 31.8276 71.3909 30.9388C70.4927 29.9321 69.6896 28.8291 68.9182 27.7154C67.8615 26.1947 66.8893 24.6204 65.8644 23.0676C64.9979 21.7611 64.1102 20.4654 63.2332 19.1696C62.1131 17.499 60.993 15.8391 59.8623 14.1685C59.7672 14.0185 59.6404 13.9007 59.503 13.7401C56.259 18.5592 53.0255 23.3568 49.7709 28.1866C49.866 28.208 49.9294 28.2508 49.9928 28.2401C50.891 28.1866 51.7997 28.0795 52.6979 28.0688C56.5866 28.0473 60.4858 28.0688 64.3744 28.058C64.8922 28.058 65.1986 28.2401 65.4945 28.6577C66.7414 30.4354 68.0306 32.181 69.2986 33.948C70.1017 35.0724 70.8837 36.2076 71.6656 37.3428C71.7713 37.4927 71.7819 37.7176 71.8664 37.9853C71.2429 38.0281 70.7146 38.1031 70.1968 38.1031C63.9834 38.1138 57.7595 38.1245 51.5461 38.1138C44.4134 38.1031 37.2807 38.071 30.1586 38.0388C29.7887 38.0388 29.4083 37.9853 28.9434 37.9425C29.049 37.6747 29.0807 37.5248 29.1653 37.407C31.0779 34.612 32.9905 31.8276 34.9031 29.0433C37.0271 25.9484 39.1405 22.8535 41.2539 19.7479C42.5536 17.8309 43.8111 15.8819 45.1108 13.965C46.1992 12.3586 47.3299 10.7844 48.4289 9.17806C49.327 7.85014 50.183 6.4901 51.0917 5.17289C52.085 3.73788 53.0995 2.29216 54.5577 1.27481C55.6884 0.503758 56.967 -0.0102741 58.4041 0.000434945C58.9113 0.000434945 59.4291 0.000434945 59.9363 0.000434945C61.8383 -0.0209831 63.4128 0.750066 64.8394 1.99231C66.2659 3.24527 67.2803 4.78736 68.337 6.32946C69.2035 7.60383 70.1017 8.84608 70.9893 10.099C71.8875 11.3841 72.7752 12.6906 73.6839 13.9757C75.121 16.0211 76.5687 18.0665 78.0269 20.1012C78.5024 20.7652 78.8089 21.4934 79.0202 22.2966C79.3055 23.3675 79.8233 24.3741 80.6687 25.0809C81.4823 25.7663 82.4122 26.3125 83.3527 26.8158C84.8532 27.619 86.4699 27.951 88.1712 28.0795C92.863 28.4543 97.5547 28.133 102.246 28.2508C102.415 28.2508 102.585 28.2294 102.817 28.208C102.817 26.5052 102.817 24.8346 102.817 23.0569C96.5614 23.0569 90.3163 23.0569 84.0607 23.0569C84.029 23.0034 84.0078 22.9391 83.9761 22.8856C84.3354 22.4037 84.6841 21.9111 85.0645 21.4399C85.7725 20.5724 86.4911 19.7371 87.1991 18.8804C88.298 17.5418 89.4076 16.2032 90.4854 14.8431C90.739 14.5219 91.056 14.5433 91.3836 14.5433C98.231 14.5433 105.089 14.5433 111.936 14.554C112.708 14.5647 113.5 14.5647 114.377 14.5647Z" fill="black"/>
<path d="M167.814 0.877121C167.571 1.19839 167.317 1.51966 167.074 1.84093C165.964 3.30807 164.865 4.7752 163.766 6.24233C162.858 7.45245 161.928 8.66257 161.019 9.87269C160.681 10.3225 160.29 10.5366 159.677 10.5366C151.826 10.5152 143.964 10.5152 136.113 10.5152C126.264 10.5152 116.426 10.5259 106.578 10.5259C100.322 10.5259 94.0772 10.5259 87.8216 10.5581C87.1876 10.5581 86.543 10.6973 85.9301 10.89C84.9896 11.1792 84.0281 11.5005 83.151 11.9502C81.9464 12.5714 80.8791 13.4067 80.0866 14.5632C79.442 15.5163 78.8397 16.4801 78.6495 17.6474C78.6178 17.8188 78.491 17.9687 78.3642 18.2043C77.8675 17.4975 77.4237 16.8871 77.001 16.2767C76.0711 14.9488 75.1518 13.6208 74.2219 12.2929C73.2814 10.9543 72.3621 9.60496 71.4111 8.26634C71.1892 7.95578 71.2209 7.75231 71.4639 7.47387C73.4505 5.26782 75.8386 3.67217 78.5861 2.6334C79.8013 2.17291 81.0587 1.78739 82.3162 1.4447C83.1721 1.21981 84.0703 1.14485 84.9474 0.99492C88.1069 0.459469 91.2876 0.662941 94.4682 0.662941C118.529 0.652232 142.58 0.662941 166.641 0.67365C167.021 0.67365 167.401 0.67365 167.771 0.67365C167.782 0.748613 167.792 0.812867 167.814 0.877121Z" fill="black"/>
<path d="M136.505 22.8853C136.685 22.6175 136.833 22.3284 137.033 22.0928C138.386 20.4543 139.749 18.8266 141.102 17.1881C141.704 16.4599 142.285 15.7317 142.856 14.982C143.067 14.7036 143.31 14.5751 143.659 14.5751C151.162 14.5858 158.664 14.5858 166.167 14.5858C166.336 14.5858 166.505 14.6179 166.727 14.6286C166.727 22.4141 166.727 30.1674 166.727 37.9528C166.431 37.9528 166.156 37.9528 165.881 37.9528C159.013 37.9528 152.144 37.9528 145.276 37.9636C144.145 37.9636 143.025 38.0385 141.894 38.0278C140.88 38.0278 139.844 38.0599 138.84 37.91C137.033 37.6423 135.205 37.4709 133.451 36.8391C131.898 36.2822 130.366 35.6825 128.918 34.8794C125.315 32.8661 122.599 29.9853 120.866 26.2158C120.243 24.8557 119.757 23.4207 119.619 21.9C119.524 20.7863 119.281 19.6726 119.344 18.5695C119.45 16.4813 119.757 14.4037 120.634 12.4654C120.771 12.1656 120.929 12.0156 121.257 12.0156C125.663 12.0156 130.059 12.0156 134.466 12.0263C134.571 12.0263 134.666 12.0585 134.92 12.1013C134.793 12.3155 134.751 12.5082 134.624 12.6046C133.43 13.4399 132.469 14.5108 131.824 15.8066C131.444 16.567 131.274 17.4344 131.053 18.2697C130.936 18.6873 130.841 19.1478 130.873 19.5655C131 21.2682 131.422 22.8639 132.469 24.256C133.039 25.0164 133.642 25.7339 134.455 26.2051C135.279 26.687 136.167 27.0939 137.055 27.458C138.101 27.8864 139.21 27.9935 140.32 28.1434C141.514 28.304 142.697 28.2612 143.891 28.2719C147.4 28.304 150.897 28.2826 154.406 28.2826C154.649 28.2826 154.892 28.2826 155.177 28.2826C155.24 28.0898 155.325 27.9185 155.325 27.7579C155.335 26.3122 155.325 24.8664 155.325 23.4207C155.325 23.335 155.283 23.2494 155.251 23.078C149.038 23.078 142.824 23.078 136.6 23.078C136.59 23.0138 136.547 22.9495 136.505 22.8853Z" fill="black"/>
<path d="M79.474 38.1252C78.5124 38.1252 77.5508 38.1681 76.5892 38.1038C76.1031 38.0717 75.0253 36.2726 75.1415 35.6836C75.3423 35.7264 75.5642 35.7264 75.7544 35.8121C76.642 36.2405 77.5085 36.7009 78.3961 37.1293C78.6286 37.2471 78.8822 37.3114 79.1253 37.4077C79.3894 37.5255 79.6959 37.6112 79.474 38.1252Z" fill="black"/>
</mask>
<g mask="url(#mask1_5605_55489)">
<rect x="28.2188" y="-0.453125" width="139.691" height="39.4219" fill="white"/>
</g>
</svg>
