<svg width="197" height="58" viewBox="0 0 197 58" fill="none" xmlns="http://www.w3.org/2000/svg">
<g clip-path="url(#clip0_5605_55398)">
<mask id="mask0_5605_55398" style="mask-type:alpha" maskUnits="userSpaceOnUse" x="-1" y="49" width="198" height="9">
<path d="M99.6367 57.6459C99.4888 57.6887 99.3409 57.7637 99.1929 57.7637C98.4004 57.7744 97.6079 57.7851 96.8153 57.7529C96.604 57.7422 96.3398 57.603 96.1919 57.4424C95.2409 56.4143 94.3215 55.3648 93.3916 54.3154C93.1486 54.0369 92.9056 53.9298 92.5252 54.1012C92.5252 54.9472 92.4935 55.8039 92.5357 56.6499C92.5674 57.1104 92.9478 57.271 93.3705 57.3246C93.5607 57.346 93.7509 57.3995 93.9411 57.4317C93.9411 57.4852 93.9517 57.5388 93.9517 57.603C93.8143 57.6566 93.677 57.7637 93.5396 57.7637C92.2187 57.7744 90.8978 57.7744 89.577 57.7637C89.4396 57.7637 89.3022 57.6994 89.1649 57.6566C89.1649 57.603 89.1543 57.5495 89.1543 57.4959C89.3128 57.4424 89.4713 57.3567 89.6404 57.3353C90.4223 57.2389 90.5703 57.0783 90.5703 56.2858C90.5808 54.4974 90.5808 52.7197 90.5808 50.9313C90.5808 50.0532 90.4857 49.9568 89.5981 49.8069C89.4713 49.7854 89.3551 49.7212 89.2283 49.6891C89.2283 49.6462 89.2177 49.5927 89.2177 49.5498C89.3234 49.4963 89.4396 49.4106 89.5453 49.4106C91.5424 49.4749 93.5607 49.2072 95.5473 49.6141C96.3504 49.7747 96.9844 50.2245 97.312 50.9956C97.6924 51.8951 97.1746 53.0196 96.2342 53.4158C95.9172 53.555 95.5896 53.6728 95.1669 53.8335C95.8643 54.6152 96.5406 55.322 97.1641 56.0716C97.8086 56.8641 98.6963 57.2175 99.6684 57.4424C99.6684 57.5174 99.6473 57.5816 99.6367 57.6459ZM92.5252 53.4158C93.4868 53.5015 94.311 53.3087 94.9133 52.6126C95.1563 52.3235 95.3148 51.8202 95.262 51.4453C95.0824 50.1281 93.3705 49.6034 92.5252 50.2459C92.5252 51.2526 92.5252 52.2914 92.5252 53.4158Z" fill="black"/>
<path d="M78.4824 57.5285C78.6621 57.4535 78.81 57.3678 78.9685 57.3464C79.7822 57.2393 79.8984 57.1215 79.909 56.3077C79.909 54.4871 79.909 52.6666 79.909 50.8461C79.909 50.0322 79.7822 49.9037 78.9791 49.7966C78.8311 49.7752 78.6938 49.6895 78.5564 49.6359C78.567 49.5824 78.567 49.5288 78.5775 49.4753C78.7572 49.4432 78.9262 49.4003 79.1059 49.3896C80.712 49.3789 82.3077 49.3254 83.9033 49.4111C85.3404 49.486 86.7775 49.6788 87.9082 50.7711C89.2713 52.0883 89.3664 54.7227 88.0878 56.1149C87.3481 56.9181 86.4288 57.3464 85.3827 57.5499C83.2164 57.9783 81.0396 57.657 78.8628 57.7427C78.7783 57.7427 78.6938 57.7105 78.6092 57.6891C78.5881 57.6784 78.5775 57.6356 78.4824 57.5285ZM81.8427 56.9395C83.3327 57.582 85.3298 56.9502 86.2703 55.5901C87.1156 54.3693 86.9994 52.3239 86.0484 51.2423C85.1185 50.1714 82.8571 49.5396 81.8427 50.2785C81.8427 52.4738 81.8427 54.7013 81.8427 56.9395Z" fill="black"/>
<path d="M37.2607 53.812C37.3346 53.9405 37.3663 54.0691 37.4403 54.144C38.1483 54.9151 38.8563 55.6861 39.5642 56.4464C39.9975 56.9176 40.5153 57.2175 41.1599 57.3139C41.3184 57.3353 41.4557 57.4531 41.6037 57.5281C41.5931 57.5816 41.5825 57.6352 41.5614 57.6887C41.4135 57.7101 41.2761 57.7422 41.1282 57.753C40.5153 57.7637 39.8918 57.7208 39.2789 57.7637C38.7612 57.7958 38.3913 57.6244 38.0532 57.2175C37.2395 56.2537 36.3836 55.3327 35.5488 54.3903C35.3163 54.1226 35.0733 53.8977 34.6189 54.0905C34.5978 54.219 34.5661 54.3903 34.5661 54.5617C34.5555 55.1721 34.5555 55.7718 34.5661 56.3822C34.5872 57.0783 34.7668 57.2603 35.4326 57.346C35.6016 57.3674 35.7601 57.4317 35.9186 57.5816C35.4326 57.86 34.9148 57.7422 34.4076 57.7637C33.8581 57.7851 33.3192 57.7851 32.7697 57.7637C32.273 57.7422 31.7553 57.8708 31.2797 57.6566C31.2797 57.5923 31.2797 57.5281 31.2797 57.4638C31.47 57.421 31.6602 57.3781 31.8504 57.346C32.4421 57.2603 32.664 57.0354 32.664 56.4357C32.6746 54.5402 32.6746 52.6555 32.664 50.76C32.664 50.1067 32.4315 49.8925 31.7764 49.8176C31.5968 49.7962 31.4171 49.7319 31.248 49.6891C31.248 49.6248 31.2586 49.5606 31.2586 49.4963C31.4171 49.4642 31.5651 49.4106 31.7236 49.4106C33.2346 49.3999 34.7563 49.3571 36.2674 49.4213C36.9331 49.4535 37.6199 49.6248 38.2645 49.8604C39.057 50.1603 39.5114 50.8456 39.5008 51.6917C39.4903 52.5484 38.9514 53.1267 38.18 53.4586C37.8841 53.5764 37.5882 53.6835 37.2607 53.812ZM34.6083 53.3944C35.7179 53.5657 36.8485 53.0731 37.1972 52.3235C37.4826 51.7024 37.3241 50.9099 36.7957 50.4815C36.1934 49.9889 35.2741 49.7212 34.5978 50.2674C34.6083 51.2847 34.6083 52.3235 34.6083 53.3944Z" fill="black"/>
<path d="M154.681 57.9588C153.149 57.9588 151.775 57.5947 150.655 56.4489C148.922 54.6819 149.154 51.5334 151.479 50.0449C153.339 48.8669 156.71 48.9311 158.474 50.4304C160.186 51.8868 160.324 55.1317 158.527 56.6202C157.439 57.5091 156.34 57.9588 154.681 57.9588ZM157.566 53.6645C157.608 53.6538 157.64 53.6538 157.682 53.6431C157.534 52.9684 157.46 52.2723 157.228 51.6298C156.805 50.5161 155.938 49.8842 154.765 49.8521C153.645 49.82 152.768 50.3554 152.261 51.3942C151.659 52.6257 151.627 53.9108 152.05 55.1852C152.441 56.3418 153.17 57.1985 154.459 57.2842C155.621 57.3698 156.52 56.8772 157.143 55.8384C157.534 55.1531 157.587 54.4249 157.566 53.6645Z" fill="black"/>
<path d="M134.783 57.9563C133.271 57.967 131.887 57.6029 130.799 56.4678C129.002 54.5937 129.267 51.4131 131.771 49.946C133.546 48.9072 136.801 48.8001 138.703 50.5243C140.33 51.9914 140.383 54.9149 138.893 56.3714C137.741 57.4851 136.589 57.9563 134.783 57.9563ZM137.699 53.7048C137.741 53.6941 137.773 53.6941 137.815 53.6834C137.667 52.998 137.604 52.2698 137.361 51.6166C136.949 50.4921 136.061 49.8817 134.888 49.8496C133.81 49.8282 132.944 50.2994 132.447 51.3167C132.268 51.6915 132.12 52.1092 132.035 52.5161C131.76 53.844 131.919 55.1291 132.733 56.2322C133.874 57.785 136.188 57.6029 137.202 55.9644C137.625 55.2469 137.72 54.4973 137.699 53.7048Z" fill="black"/>
<path d="M104.107 49.2626C105.48 49.1662 106.706 49.6267 107.784 50.5691C108.978 51.6185 109.263 52.9786 108.978 54.4457C108.608 56.3412 107.277 57.3264 105.533 57.7762C103.937 58.1832 102.363 58.0547 100.884 57.2408C98.1785 55.7415 98.3053 52.0255 100.123 50.5691C101.296 49.616 102.574 49.1876 104.107 49.2626ZM106.917 53.664C106.801 53.0536 106.727 52.4431 106.569 51.8434C106.262 50.7083 105.248 49.9265 104.043 49.8301C102.944 49.7445 101.866 50.4191 101.401 51.5007C100.884 52.6787 100.926 53.9103 101.232 55.1097C101.412 55.7951 101.814 56.4162 102.416 56.8338C103.62 57.6691 105.427 57.2943 106.241 56.0628C106.706 55.3346 106.875 54.5314 106.917 53.664Z" fill="black"/>
<path d="M118.901 49.3344C118.965 50.1697 119.028 51.0371 119.091 51.8831C118.457 52.0759 118.383 52.033 118.119 51.5404C117.464 50.2875 116.291 49.7199 115.012 49.8591C113.427 50.0197 112.328 51.0585 112.022 52.3757C111.663 53.9392 112.011 55.2779 113.142 56.3702C114.146 57.334 115.794 57.6231 117.168 56.8307C117.168 55.9632 117.2 55.0637 117.158 54.1641C117.136 53.7251 116.714 53.6715 116.376 53.5644C116.207 53.5109 116.037 53.4359 115.773 53.3395C116.365 53.0076 119.979 53.0504 120.359 53.3824C120.137 53.468 119.958 53.543 119.768 53.5966C119.377 53.7036 119.186 53.9392 119.197 54.3676C119.218 55.1172 119.165 55.8669 119.208 56.6165C119.229 57.077 119.038 57.334 118.637 57.4304C117.94 57.6017 117.253 57.8373 116.545 57.9123C115.139 58.0515 113.734 58.0301 112.392 57.4946C110.321 56.6593 109.19 54.8816 109.803 52.6006C110.194 51.1335 111.24 50.159 112.624 49.6342C114.199 49.0345 115.816 49.0452 117.432 49.5378C117.601 49.5914 117.855 49.5378 117.992 49.4415C118.352 49.1737 118.362 49.1416 118.901 49.3344Z" fill="black"/>
<path d="M171.143 53.32C170.963 53.4164 170.837 53.5128 170.699 53.5556C170.076 53.7377 169.959 53.8662 169.949 54.5194C169.938 55.2477 169.928 55.9866 169.949 56.7148C169.959 57.0789 169.833 57.3145 169.495 57.3895C168.649 57.5929 167.793 57.8821 166.937 57.9249C165.965 57.9785 164.951 57.9356 164 57.7321C162.267 57.3573 160.914 56.3828 160.47 54.5409C160.132 53.1166 160.618 51.8529 161.601 50.8248C162.626 49.7432 163.915 49.2399 165.384 49.2078C166.367 49.1864 167.349 49.1864 168.29 49.5505C168.417 49.5933 168.607 49.4862 168.755 49.4327C169.008 49.347 169.262 49.2506 169.611 49.1328C169.716 50.1609 169.812 51.0283 169.907 51.8957C169.399 52.0778 169.104 52.0242 168.882 51.5638C167.762 49.2827 164.507 49.2934 163.218 51.3817C161.992 53.3629 162.732 56.2864 165.215 57.1324C166.103 57.4323 167.011 57.3573 167.92 56.854C167.92 55.933 167.941 55.0121 167.899 54.0911C167.888 53.9412 167.666 53.7591 167.497 53.6734C167.265 53.5556 167.001 53.5235 166.652 53.4164C166.768 53.2879 166.853 53.1166 166.937 53.1166C168.29 53.1166 169.642 53.1487 170.995 53.1594C170.995 53.1808 171.006 53.2022 171.143 53.32Z" fill="black"/>
<path d="M73.2822 53.331C73.2505 53.3738 73.2188 53.4381 73.1871 53.4381C72.4579 53.5024 72.2149 53.9628 72.2255 54.6375C72.2255 55.1944 72.1938 55.7405 72.2255 56.2974C72.2677 57.0792 72.2043 57.2184 71.4752 57.4647C70.0487 57.9573 68.5799 57.9466 67.1005 57.8181C66.2129 57.7431 65.3781 57.4647 64.6278 56.9828C62.2397 55.4835 62.208 52.3672 64.2051 50.6109C65.2301 49.7114 66.4136 49.2509 67.7768 49.2616C68.675 49.2723 69.5732 49.2188 70.4397 49.5507C70.6933 49.6471 70.968 49.6685 71.211 49.4008C71.3379 49.2723 71.6126 49.283 71.9085 49.2188C72.0036 50.1719 72.0775 51.0286 72.1621 51.8639C71.6866 52.0781 71.4435 51.9174 71.2744 51.564C70.6193 50.204 69.4675 49.7007 68.0621 49.8185C66.5933 49.9363 65.6106 50.7501 65.1139 52.1851C64.4588 54.0699 65.4626 56.4259 67.3435 57.1006C68.1995 57.4111 69.066 57.3897 69.9219 57.0685C70.2178 56.9614 70.3234 56.7686 70.3234 56.458C70.3129 55.7941 70.3234 55.1408 70.3129 54.4769C70.3023 53.845 70.1226 53.6309 69.5098 53.4809C69.3724 53.4488 69.2245 53.4167 69.0342 53.3738C69.4041 53.0526 72.9123 53.0419 73.2822 53.331Z" fill="black"/>
<path d="M128.485 49.4238C128.485 50.0449 128.485 50.6553 128.485 51.2978C128.263 51.2978 128.01 51.2978 127.777 51.2978C127.46 50.2269 127.08 49.9699 125.896 49.9699C125.209 49.9699 124.533 49.9699 123.741 49.9699C123.624 51.0087 123.709 52.0046 123.688 53.097C124.596 53.0541 125.474 53.3004 126.277 52.9149C126.583 52.765 126.763 52.3687 126.995 52.0796C126.974 52.0475 126.942 52.0046 126.921 51.9725C127.143 51.9725 127.354 51.9725 127.629 51.9725C127.629 52.9256 127.629 53.8573 127.629 54.8318C127.376 54.8318 127.154 54.8318 126.9 54.8318C126.752 53.8037 126.012 53.6752 125.178 53.6967C124.723 53.7074 124.269 53.6967 123.688 53.6967C123.688 54.3713 123.698 55.0139 123.688 55.6457C123.656 57.3806 123.783 57.1771 125.178 57.1664C125.664 57.1664 126.15 57.1021 126.636 57.0593C127.376 56.995 127.809 56.481 128.2 55.9134C128.538 55.4208 128.612 55.4101 129.32 55.56C129.225 55.8599 129.151 56.149 129.045 56.4275C128.549 57.7554 128.549 57.7554 127.154 57.7554C125.093 57.7554 123.033 57.7554 120.972 57.7554C120.771 57.7554 120.56 57.734 120.359 57.7232C120.338 57.6804 120.306 57.6376 120.285 57.5947C120.38 57.4984 120.465 57.3591 120.581 57.3163C120.74 57.2521 120.919 57.2521 121.099 57.2306C121.5 57.1771 121.659 56.9308 121.659 56.5345C121.659 54.5748 121.669 52.615 121.659 50.6446C121.659 50.0235 121.479 49.8843 120.803 49.82C120.581 49.7986 120.275 49.8628 120.349 49.4023C123.033 49.4238 125.717 49.4238 128.485 49.4238Z" fill="black"/>
<path d="M197 57.5832C196.884 57.6475 196.757 57.7546 196.641 57.7546C195.362 57.7653 194.073 57.7653 192.795 57.7546C192.689 57.7546 192.594 57.6689 192.488 57.626C192.478 57.5725 192.467 57.519 192.467 57.4654C192.657 57.3904 192.837 57.3048 193.027 57.2512C193.513 57.1013 193.555 57.0156 193.355 56.5337C192.731 55.0773 192.731 55.0773 191.199 55.0773C190.702 55.0773 190.216 55.088 189.72 55.0773C189.445 55.0773 189.265 55.1523 189.138 55.4307C188.969 55.8162 188.726 56.1696 188.568 56.5659C188.42 56.9193 188.525 57.1763 188.959 57.2512C189.17 57.2941 189.54 57.2298 189.487 57.776C188.272 57.7438 187.067 57.8616 185.863 57.6903C185.852 57.626 185.841 57.5618 185.82 57.5082C185.937 57.4333 186.053 57.3048 186.18 57.2834C186.761 57.1977 187.036 56.7693 187.279 56.3088C188.462 54.0921 189.656 51.8646 190.818 49.6371C190.988 49.3159 191.199 49.2088 191.526 49.2195C191.854 49.2302 191.949 49.4551 192.076 49.7014C192.858 51.2542 193.65 52.7963 194.443 54.3491C194.771 54.9916 195.119 55.6342 195.436 56.2874C195.7 56.8336 196.07 57.2191 196.683 57.3155C196.778 57.3262 196.863 57.4012 196.958 57.444C196.968 57.4868 196.99 57.5404 197 57.5832ZM192.308 54.4241C191.865 53.5887 191.474 52.8391 191.083 52.0895C191.03 52.1002 190.977 52.1109 190.924 52.1323C190.523 52.8712 190.132 53.6102 189.688 54.4241C190.586 54.4241 191.4 54.4241 192.308 54.4241Z" fill="black"/>
<path d="M58.9115 49.6897C59.3447 49.2827 62.462 49.3149 62.8424 49.6576C62.6205 49.7218 62.462 49.7754 62.2929 49.8075C61.6589 49.9146 61.4264 50.1609 61.4264 50.7927C61.4158 52.0457 61.4264 53.2879 61.4158 54.5409C61.4158 54.8621 61.363 55.1727 61.3313 55.494C61.1728 56.7255 60.3486 57.4002 59.2813 57.6786C57.897 58.032 56.4599 58.032 55.0756 57.5715C53.8393 57.1646 53.311 56.2329 53.2793 54.9692C53.2476 53.652 53.2159 52.3348 53.2159 51.0069C53.2159 49.9895 52.9728 49.7754 52.1803 49.7754C52.0746 49.7754 51.969 49.6897 51.8738 49.6469C51.8738 49.604 51.8633 49.5612 51.8633 49.5183C52.0112 49.4648 52.1486 49.3791 52.2965 49.3791C53.5857 49.3684 54.8643 49.3684 56.1535 49.3791C56.2803 49.3791 56.4071 49.4327 56.5339 49.4648C56.5444 49.5183 56.5445 49.5719 56.555 49.6254C56.3965 49.679 56.2486 49.7646 56.0901 49.7861C55.3609 49.8824 55.139 50.1073 55.1285 50.857C55.1179 52.142 55.1073 53.4271 55.139 54.7122C55.1602 55.4618 55.2764 56.2222 55.8576 56.7791C56.8932 57.775 59.7568 57.368 60.1795 55.7724C60.2323 55.5475 60.2957 55.3226 60.2957 55.0977C60.3063 53.6306 60.3169 52.1742 60.3169 50.707C60.3169 50.0538 60.1161 49.861 59.4821 49.7861C59.2496 49.7861 59.0805 49.7325 58.9115 49.6897Z" fill="black"/>
<path d="M11.0327 57.7014C9.60618 57.7978 8.16907 57.7871 6.74253 57.7014C6.73196 57.6372 6.72139 57.5622 6.71083 57.498C6.89046 57.423 7.05954 57.3373 7.23917 57.2838C7.60902 57.1767 7.69355 56.9304 7.57732 56.5877C7.56675 56.5556 7.54562 56.5234 7.53505 56.4913C6.92217 55.0456 6.92217 55.0456 5.37939 55.0456C4.93558 55.0456 4.50233 55.067 4.05852 55.0349C3.62527 55.0028 3.31883 55.1313 3.13919 55.5596C2.94899 56.0094 2.69538 56.4485 2.42064 56.9946C2.86445 57.166 3.23429 57.3052 3.73094 57.498C3.53017 57.6158 3.4245 57.7228 3.31883 57.7228C2.29383 57.7336 1.2794 57.7228 0.254409 57.7228C0.191007 57.7228 0.138172 57.6693 -0.00976562 57.5836C0.127605 57.4658 0.212141 57.3373 0.307243 57.3159C0.909561 57.2088 1.22657 56.7697 1.49074 56.2664C2.66368 54.0389 3.83661 51.8115 5.03068 49.5947C5.11521 49.4341 5.36882 49.2841 5.54846 49.2734C5.7281 49.2734 6.00284 49.4127 6.08737 49.5733C7.0701 51.4795 8.0317 53.3964 9.00386 55.3133C9.22576 55.7524 9.4371 56.2129 9.74355 56.5984C9.97602 56.8875 10.3353 57.0589 10.6523 57.2624C10.7685 57.3373 10.9165 57.3802 11.0538 57.4337C11.0538 57.5408 11.0433 57.6158 11.0327 57.7014ZM3.72037 54.4459C4.7031 54.4459 5.55903 54.4459 6.52062 54.4459C6.05567 53.5677 5.63299 52.786 5.15748 51.8757C4.65027 52.7967 4.21702 53.5677 3.72037 54.4459Z" fill="black"/>
<path d="M44.1501 56.9807C44.5939 57.1628 44.9743 57.3234 45.3547 57.484C45.0589 57.816 42.3326 57.8696 41.8359 57.5483C41.931 57.4626 42.005 57.3448 42.1001 57.3234C42.6919 57.2163 42.9877 56.7665 43.2413 56.2953C44.4143 54.1 45.5661 51.9046 46.7179 49.6986C46.8658 49.4202 47.0138 49.2381 47.3625 49.2595C47.69 49.2809 47.7851 49.4951 47.9119 49.7521C48.6939 51.3049 49.497 52.847 50.3001 54.3891C50.6065 54.9888 50.9235 55.5778 51.2194 56.1883C51.5047 56.7772 51.8851 57.2377 52.5614 57.3448C52.6354 57.3555 52.7093 57.4305 52.8784 57.5376C52.6988 57.634 52.5931 57.7303 52.4874 57.7303C51.2405 57.7411 49.9831 57.7411 48.7362 57.7303C48.6411 57.7303 48.5565 57.6554 48.4297 57.484C48.6199 57.4091 48.7996 57.302 48.9898 57.2484C49.3279 57.1628 49.4336 56.9379 49.3174 56.6487C49.1166 56.1561 48.8841 55.6742 48.6305 55.2137C48.5671 55.0959 48.3241 55.0424 48.1656 55.0424C47.2885 55.0317 46.4009 55.021 45.5238 55.0531C45.3336 55.0638 45.0906 55.203 44.9955 55.3637C44.7102 55.8563 44.4777 56.3703 44.1501 56.9807ZM48.2607 54.4641C47.7957 53.5753 47.3942 52.7828 46.9926 52.001C46.9398 52.001 46.8869 52.001 46.8235 52.001C46.3903 52.7935 45.9676 53.5753 45.4815 54.4641C46.4643 54.4641 47.2885 54.4641 48.2607 54.4641Z" fill="black"/>
<path d="M176.321 49.3803C177.874 49.391 179.438 49.3268 180.991 49.4125C181.002 49.4981 181.023 49.5731 181.033 49.6588C180.864 49.723 180.706 49.798 180.526 49.8301C179.882 49.9693 179.776 50.2049 180.177 50.7297C180.79 51.5328 181.414 52.3146 182.09 53.1713C182.566 52.5823 182.999 52.0576 183.432 51.5221C183.622 51.2865 183.791 51.0402 183.96 50.7939C184.288 50.3013 184.193 50.0336 183.633 49.8301C183.495 49.7766 183.379 49.6695 183.252 49.5838C183.274 49.5303 183.305 49.4767 183.326 49.4232C184.594 49.4232 185.862 49.4232 187.152 49.4232C187.247 49.6588 187.183 49.7873 186.93 49.8301C186.106 49.9907 185.588 50.5476 185.102 51.1794C184.383 52.1218 183.633 53.0535 182.925 53.9959C182.777 54.1887 182.682 54.4671 182.661 54.7134C182.618 55.2489 182.64 55.7843 182.65 56.3198C182.671 56.973 182.904 57.2086 183.538 57.2943C183.728 57.3264 183.918 57.3693 184.119 57.4014C184.13 57.4549 184.14 57.5085 184.14 57.5513C184.024 57.6156 183.908 57.7441 183.781 57.7441C182.375 57.7548 180.97 57.7441 179.554 57.7334C179.491 57.7334 179.427 57.6905 179.364 57.6584C179.29 57.3157 179.512 57.3157 179.723 57.2943C180.526 57.1979 180.695 57.0373 180.748 56.2341C180.78 55.7201 180.769 55.1953 180.748 54.6813C180.738 54.5314 180.664 54.3707 180.579 54.2529C179.66 53.0857 178.73 51.9184 177.81 50.7618C177.472 50.3334 177.071 50.0122 176.553 49.8408C176.426 49.798 176.331 49.6373 176.215 49.541C176.257 49.4981 176.289 49.4339 176.321 49.3803Z" fill="black"/>
<path d="M25.6154 53.2547C26.1437 52.6015 26.6087 52.0446 27.0525 51.4877C27.2427 51.2521 27.4118 51.0058 27.5703 50.7488C27.8873 50.2562 27.8027 50.0206 27.2532 49.8385C27.137 49.7957 27.0208 49.7636 26.9151 49.71C26.894 49.6993 26.8834 49.6458 26.8411 49.5387C26.9785 49.4959 27.1053 49.4209 27.2321 49.4102C28.5107 49.2817 30.3599 49.3888 30.7192 49.6351C30.5501 49.7207 30.4339 49.8064 30.3071 49.8385C29.7153 49.9885 29.261 50.3204 28.8911 50.8024C28.0669 51.8625 27.2321 52.9227 26.4079 53.9936C26.2917 54.1543 26.2283 54.3792 26.2177 54.5826C26.1966 55.2038 26.1966 55.8356 26.2071 56.4567C26.2177 57.0885 26.3868 57.2492 27.0208 57.3456C27.2004 57.3777 27.3801 57.4312 27.6442 57.4955C27.1793 57.8596 23.2695 57.8489 22.8468 57.4955C23.0687 57.4312 23.2378 57.367 23.4069 57.3563C24.0937 57.2813 24.2945 57.0778 24.3156 56.371C24.3156 56.3496 24.3156 56.3389 24.3156 56.3175C24.3579 54.5291 24.3685 54.5291 23.2589 53.0941C22.6566 52.3123 22.0226 51.5413 21.4097 50.7595C21.0716 50.3312 20.6806 49.9885 20.1417 49.8493C20.0254 49.8171 19.9198 49.7207 19.793 49.6458C20.2051 49.3138 24.1149 49.3245 24.5587 49.6886C24.2945 49.7636 24.0937 49.8064 23.893 49.86C23.3752 49.9885 23.2589 50.2348 23.5759 50.6631C24.21 51.4877 24.8757 52.3123 25.6154 53.2547Z" fill="black"/>
<path d="M149.132 55.4715C148.815 56.2425 148.519 56.9707 148.213 57.7311C145.465 57.7311 142.76 57.7311 140.034 57.7311C139.918 57.3884 140.097 57.3348 140.34 57.3134C141.323 57.1956 141.386 57.1099 141.386 56.1033C141.386 54.3684 141.386 52.6443 141.386 50.9094C141.386 50.0955 141.217 49.9028 140.414 49.8278C140.182 49.8064 139.928 49.8278 140.013 49.4102C141.64 49.4102 143.257 49.4102 144.895 49.4102C144.99 49.6672 144.916 49.7957 144.652 49.8171C143.215 49.9456 143.415 50.1598 143.415 51.3164C143.405 52.9977 143.405 54.6683 143.415 56.3496C143.415 56.9921 143.595 57.1849 144.24 57.1742C144.937 57.1635 145.634 57.0885 146.332 57.0457C147.167 57.0028 147.653 56.4674 148.044 55.7927C148.339 55.2573 148.445 55.2359 149.132 55.4715Z" fill="black"/>
<path d="M15.925 50.0332C15.9144 50.2152 15.8827 50.3973 15.8827 50.59C15.8827 52.432 15.8827 54.2632 15.8827 56.1052C15.8827 57.0369 16.0095 57.326 16.9711 57.3474C17.0874 57.3474 17.2036 57.4331 17.4572 57.5188C17.2459 57.6366 17.1508 57.7222 17.0557 57.7329C16.2315 57.8614 12.9663 57.7544 12.5436 57.5402C12.7866 57.4545 12.9346 57.3581 13.0825 57.3474C13.8328 57.251 13.9807 57.1225 13.9807 56.3836C13.9913 54.4239 13.9913 52.4641 13.9807 50.4937C13.9807 50.3437 13.949 50.1831 13.9279 50.0439C12.3639 49.7226 11.6137 50.1188 11.2438 51.2754C11.1593 51.2861 11.0536 51.3182 10.948 51.3182C10.8634 51.3182 10.7789 51.2861 10.5781 51.254C10.6098 50.665 10.6415 50.076 10.6732 49.4549C10.948 49.4335 11.1276 49.3906 11.3178 49.3906C13.7693 49.3906 16.2103 49.3906 18.6619 49.3906C19.2113 49.3906 19.2959 49.4763 19.3276 50.0332C19.3487 50.333 19.3487 50.6436 19.3487 50.9434C19.3487 51.0291 19.3276 51.1148 19.2959 51.2647C19.0951 51.2754 18.9049 51.2861 18.7253 51.2968C18.2709 50.0225 17.5946 49.7761 15.925 50.0332Z" fill="black"/>
<path d="M175.645 57.7429C175.444 57.7536 175.233 57.775 175.032 57.775C173.838 57.775 172.644 57.775 171.45 57.775C171.228 57.775 170.974 57.8071 170.985 57.3787C171.154 57.3573 171.323 57.3252 171.481 57.3145C172.158 57.2395 172.274 57.1324 172.284 56.4578C172.295 55.6546 172.284 54.8514 172.295 54.0482C172.295 52.9773 172.306 51.9064 172.306 50.8355C172.306 50.0966 172.158 49.936 171.439 49.8396C171.249 49.8182 170.985 49.8717 171.006 49.5397C171.344 49.347 174.715 49.272 175.666 49.4434C175.772 49.7111 175.655 49.8075 175.391 49.8396C174.419 49.9788 174.334 50.0645 174.324 51.0497C174.313 52.7417 174.313 54.4338 174.324 56.1258C174.324 57.0361 174.451 57.1753 175.359 57.3252C175.497 57.3466 175.624 57.4644 175.75 57.5394C175.708 57.6036 175.676 57.6786 175.645 57.7429Z" fill="black"/>
<path d="M73.3151 49.6999C73.6955 49.325 77.5208 49.3036 78.0702 49.6142C77.8272 49.6999 77.6793 49.7855 77.5208 49.7962C76.7494 49.8926 76.6226 50.0104 76.6226 50.8136C76.612 52.6663 76.612 54.5296 76.6226 56.3823C76.6226 57.0891 76.7916 57.2497 77.4785 57.3354C77.6476 57.3568 77.8061 57.4211 78.028 57.4853C77.6264 57.828 73.7272 57.8494 73.1777 57.5067C73.4525 57.4318 73.6321 57.3675 73.8118 57.3461C74.4986 57.2711 74.6994 57.0998 74.7099 56.4144C74.7311 54.5403 74.7311 52.6663 74.7099 50.7922C74.6994 50.1068 74.4669 49.8926 73.7801 49.8177C73.6215 49.7855 73.4736 49.7427 73.3151 49.6999Z" fill="black"/>
</mask>
<g mask="url(#mask0_5605_55398)">
<rect y="48.9375" width="197" height="9.0625" fill="url(#paint0_linear_5605_55398)"/>
</g>
<mask id="mask1_5605_55398" style="mask-type:alpha" maskUnits="userSpaceOnUse" x="28" y="0" width="140" height="39">
<path d="M114.368 14.5647C114.399 14.9288 114.452 15.2072 114.452 15.4857C114.463 18.3557 114.452 21.2364 114.463 24.1064C114.463 26.4945 114.484 28.8933 114.494 31.2815C114.505 33.2733 114.515 35.2759 114.515 37.2678C114.515 37.5248 114.442 37.7711 114.41 38.071C112.93 38.071 111.536 38.071 110.151 38.071C103.093 38.0924 96.0338 38.1352 88.9751 38.1352C87.781 38.1352 86.587 37.9425 85.3929 37.7925C84.4102 37.6747 83.4169 37.5355 82.4553 37.3106C81.4937 37.0857 80.5321 36.7645 79.6022 36.4218C78.7463 36.1005 77.9009 35.7471 77.1084 35.2973C76.0517 34.7083 75.0056 34.0872 74.044 33.3483C73.093 32.6308 72.1842 31.8276 71.3811 30.9388C70.4829 29.9321 69.6798 28.8291 68.9084 27.7154C67.8517 26.1947 66.8796 24.6204 65.8546 23.0676C64.9881 21.7611 64.1005 20.4654 63.2234 19.1696C62.1033 17.499 60.9832 15.8391 59.8525 14.1685C59.7574 14.0185 59.6306 13.9007 59.4933 13.7401C56.2492 18.5592 53.0157 23.3568 49.7611 28.1866C49.8562 28.208 49.9196 28.2508 49.983 28.2401C50.8812 28.1866 51.79 28.0795 52.6881 28.0688C56.5768 28.0473 60.476 28.0688 64.3646 28.058C64.8824 28.058 65.1889 28.2401 65.4847 28.6577C66.7316 30.4354 68.0208 32.181 69.2889 33.948C70.0919 35.0724 70.8739 36.2076 71.6558 37.3428C71.7615 37.4927 71.7721 37.7176 71.8566 37.9853C71.2332 38.0281 70.7048 38.1031 70.187 38.1031C63.9737 38.1138 57.7497 38.1245 51.5363 38.1138C44.4036 38.1031 37.2709 38.071 30.1488 38.0388C29.779 38.0388 29.3985 37.9853 28.9336 37.9425C29.0393 37.6747 29.071 37.5248 29.1555 37.407C31.0681 34.612 32.9807 31.8276 34.8934 29.0433C37.0173 25.9484 39.1307 22.8535 41.2441 19.7478C42.5439 17.8309 43.8013 15.8819 45.1011 13.965C46.1895 12.3586 47.3201 10.7844 48.4191 9.17806C49.3173 7.85014 50.1732 6.4901 51.082 5.17289C52.0753 3.73788 53.0897 2.29216 54.5479 1.27481C55.6786 0.503758 56.9572 -0.0102741 58.3943 0.000434945C58.9015 0.000434945 59.4193 0.000434945 59.9265 0.000434945C61.8286 -0.0209831 63.403 0.750066 64.8296 1.99231C66.2561 3.24527 67.2706 4.78736 68.3273 6.32946C69.1937 7.60383 70.0919 8.84608 70.9796 10.099C71.8778 11.3841 72.7654 12.6906 73.6741 13.9757C75.1113 16.0211 76.5589 18.0665 78.0172 20.1012C78.4927 20.7652 78.7991 21.4934 79.0105 22.2966C79.2958 23.3675 79.8136 24.3741 80.6589 25.0809C81.4726 25.7663 82.4025 26.3125 83.3429 26.8158C84.8434 27.619 86.4602 27.951 88.1615 28.0795C92.8532 28.4543 97.5449 28.133 102.237 28.2508C102.406 28.2508 102.575 28.2294 102.807 28.208C102.807 26.5052 102.807 24.8346 102.807 23.0569C96.5516 23.0569 90.3066 23.0569 84.0509 23.0569C84.0192 23.0034 83.9981 22.9391 83.9664 22.8856C84.3256 22.4037 84.6744 21.9111 85.0548 21.4399C85.7628 20.5724 86.4813 19.7371 87.1893 18.8804C88.2883 17.5418 89.3978 16.2032 90.4756 14.8431C90.7292 14.5219 91.0462 14.5433 91.3738 14.5433C98.2212 14.5433 105.079 14.5433 111.927 14.554C112.698 14.5647 113.49 14.5647 114.368 14.5647Z" fill="black"/>
<path d="M167.804 0.877121C167.561 1.19839 167.307 1.51966 167.064 1.84093C165.955 3.30807 164.856 4.7752 163.757 6.24234C162.848 7.45245 161.918 8.66257 161.009 9.87269C160.671 10.3225 160.28 10.5366 159.667 10.5366C151.816 10.5152 143.954 10.5152 136.103 10.5152C126.254 10.5152 116.417 10.5259 106.568 10.5259C100.313 10.5259 94.0675 10.5259 87.8118 10.5581C87.1778 10.5581 86.5332 10.6973 85.9203 10.89C84.9799 11.1792 84.0183 11.5005 83.1412 11.9502C81.9366 12.5714 80.8693 13.4067 80.0768 14.5632C79.4322 15.5163 78.8299 16.4801 78.6397 17.6474C78.608 17.8188 78.4812 17.9687 78.3544 18.2043C77.8577 17.4975 77.4139 16.8871 76.9912 16.2767C76.0614 14.9488 75.142 13.6208 74.2121 12.2929C73.2717 10.9543 72.3524 9.60496 71.4013 8.26634C71.1794 7.95578 71.2111 7.75231 71.4542 7.47387C73.4408 5.26782 75.8289 3.67217 78.5763 2.6334C79.7915 2.17291 81.049 1.78739 82.3064 1.4447C83.1624 1.21981 84.0606 1.14485 84.9376 0.99492C88.0971 0.459469 91.2778 0.662941 94.4585 0.662941C118.519 0.652232 142.57 0.662941 166.631 0.67365C167.011 0.67365 167.392 0.67365 167.762 0.67365C167.772 0.748613 167.783 0.812867 167.804 0.877121Z" fill="black"/>
<path d="M136.495 22.8853C136.675 22.6175 136.823 22.3284 137.024 22.0928C138.376 20.4543 139.739 18.8266 141.092 17.1881C141.694 16.4599 142.276 15.7317 142.846 14.982C143.057 14.7036 143.301 14.5751 143.649 14.5751C151.152 14.5858 158.654 14.5858 166.157 14.5858C166.326 14.5858 166.495 14.6179 166.717 14.6286C166.717 22.4141 166.717 30.1674 166.717 37.9528C166.421 37.9528 166.146 37.9528 165.872 37.9528C159.003 37.9528 152.134 37.9528 145.266 37.9636C144.135 37.9636 143.015 38.0385 141.885 38.0278C140.87 38.0278 139.835 38.0599 138.831 37.91C137.024 37.6423 135.196 37.4709 133.442 36.8391C131.888 36.2822 130.356 35.6825 128.908 34.8794C125.305 32.8661 122.589 29.9853 120.856 26.2158C120.233 24.8557 119.747 23.4207 119.609 21.9C119.514 20.7863 119.271 19.6726 119.335 18.5695C119.44 16.4813 119.747 14.4037 120.624 12.4654C120.761 12.1656 120.92 12.0156 121.247 12.0156C125.654 12.0156 130.05 12.0156 134.456 12.0263C134.562 12.0263 134.657 12.0585 134.91 12.1013C134.784 12.3155 134.741 12.5082 134.614 12.6046C133.42 13.4399 132.459 14.5108 131.814 15.8066C131.434 16.567 131.265 17.4344 131.043 18.2697C130.927 18.6873 130.831 19.1478 130.863 19.5655C130.99 21.2682 131.413 22.8639 132.459 24.256C133.029 25.0164 133.632 25.7339 134.445 26.2051C135.27 26.687 136.157 27.0939 137.045 27.458C138.091 27.8864 139.201 27.9935 140.31 28.1434C141.504 28.304 142.688 28.2612 143.882 28.2719C147.39 28.304 150.888 28.2826 154.396 28.2826C154.639 28.2826 154.882 28.2826 155.167 28.2826C155.231 28.0899 155.315 27.9185 155.315 27.7579C155.326 26.3122 155.315 24.8664 155.315 23.4207C155.315 23.335 155.273 23.2494 155.241 23.078C149.028 23.078 142.814 23.078 136.59 23.078C136.58 23.0138 136.538 22.9495 136.495 22.8853Z" fill="black"/>
<path d="M79.4642 38.1252C78.5026 38.1252 77.541 38.1681 76.5794 38.1038C76.0933 38.0717 75.0155 36.2726 75.1318 35.6836C75.3325 35.7264 75.5544 35.7264 75.7446 35.8121C76.6323 36.2405 77.4988 36.7009 78.3864 37.1293C78.6188 37.2471 78.8725 37.3114 79.1155 37.4077C79.3797 37.5255 79.6861 37.6112 79.4642 38.1252Z" fill="black"/>
</mask>
<g mask="url(#mask1_5605_55398)">
<rect x="28.209" y="-0.453125" width="139.691" height="39.4219" fill="url(#paint1_linear_5605_55398)"/>
</g>
</g>
<defs>
<linearGradient id="paint0_linear_5605_55398" x1="0" y1="53.4688" x2="197" y2="53.4688" gradientUnits="userSpaceOnUse">
<stop stop-color="#009DE6"/>
<stop offset="1" stop-color="#010C4E"/>
</linearGradient>
<linearGradient id="paint1_linear_5605_55398" x1="28.209" y1="38.9688" x2="170.128" y2="2.41619" gradientUnits="userSpaceOnUse">
<stop stop-color="#010648"/>
<stop offset="1" stop-color="#00AFFF"/>
</linearGradient>
<clipPath id="clip0_5605_55398">
<rect width="197" height="58" fill="white"/>
</clipPath>
</defs>
</svg>
